# xmcd
#
# Track frame offsets:
#	150
#	20225
#	31337
#	49300
#	65212
#	84087
#	99450
#	115250
#	129162
#	143287
#	164137
#	176150
#	191487
#	203637
#
# Disc length: 2918 seconds
#
# Revision: 2
# Processed by: cddbd v1.5.2PL0 Copyright (c) Steve Scherf et al.
# Submitted via: audiograbber 1.83.01
#
DISCID=c10b640e
DTITLE=Parton, Dolly - Wildest dreams
DYEAR=1900
DGENRE=Country
TTITLE0=Wildest dreams
TTITLE1=Dumb blonde
TTITLE2=The river unbroken
TTITLE3=Romeo
TTITLE4=White limozeen
TTITLE5=Dreams do come true
TTITLE6=Cross my heart
TTITLE7=High and mighty
TTITLE8=Eagle when she flies
TTITLE9=He's alive
TTITLE10=If you need me
TTITLE11=Heartsong
TTITLE12=My blue tears
TTITLE13=Whenever forever comes (Duet with Colin Raye)
EXTD=
EXTT0=
EXTT1=
EXTT2=
EXTT3=
EXTT4=
EXTT5=
EXTT6=
EXTT7=
EXTT8=
EXTT9=
EXTT10=
EXTT11=
EXTT12=
EXTT13=
PLAYORDER=
